<?xml version="1.0" standalone="no"?>
<!DOCTYPE svg PUBLIC "-//W3C//DTD SVG 20010904//EN"
 "http://www.w3.org/TR/2001/REC-SVG-20010904/DTD/svg10.dtd">
<svg version="1.0" xmlns="http://www.w3.org/2000/svg"
 width="700.000000pt" height="700.000000pt" viewBox="0 0 700.000000 700.000000"
 preserveAspectRatio="xMidYMid meet">
<metadata>
Created by potrace 1.14, written by Peter Selinger 2001-2017
</metadata>
<g transform="translate(0.000000,700.000000) scale(0.100000,-0.100000)"
fill="#000000" stroke="none">
<path d="M3107 6524 c-1 -1 -74 -5 -162 -9 -88 -3 -176 -8 -195 -10 -19 -3
-70 -7 -112 -10 -42 -3 -93 -7 -112 -10 -20 -3 -51 -7 -68 -9 -66 -9 -194 -28
-213 -33 -11 -2 -33 -6 -50 -9 -71 -12 -305 -78 -394 -110 -606 -225 -1019
-696 -1177 -1344 -2 -8 -8 -33 -13 -55 -14 -54 -49 -248 -56 -314 -4 -30 -8
-61 -10 -70 -3 -17 -13 -120 -21 -211 -26 -315 -26 -1449 0 -1610 2 -14 7 -61
11 -105 8 -105 22 -206 51 -375 37 -218 127 -485 226 -669 42 -78 133 -222
169 -265 27 -33 68 -78 120 -133 263 -276 625 -463 1069 -552 30 -6 66 -14 80
-16 80 -17 282 -41 500 -60 263 -23 1309 -23 1490 -1 14 2 66 7 115 11 50 3
124 11 165 16 41 6 93 12 115 15 22 2 49 6 61 9 12 3 39 7 60 10 21 4 55 10
74 15 19 5 49 11 65 14 17 3 78 19 135 36 58 17 110 32 115 34 52 15 207 82
296 127 283 145 533 379 700 655 106 176 202 426 255 664 16 74 24 121 43 245
17 114 20 137 26 215 4 41 8 86 11 100 26 160 26 1331 -1 1620 -46 509 -113
788 -265 1096 -111 226 -240 392 -436 566 -50 44 -208 158 -219 158 -5 0 -16
6 -24 14 -36 31 -230 122 -367 172 -85 30 -332 96 -414 109 -19 3 -60 10 -90
15 -30 5 -80 12 -110 15 -30 4 -66 8 -80 10 -49 8 -233 22 -400 31 -105 6
-958 13 -963 8z"/>
</g>
</svg>
