<svg width="288" height="92" viewBox="0 0 288 92" fill="none" xmlns="http://www.w3.org/2000/svg">
<path d="M84.1738 13.8611C76.5582 6.24558 65.5177 5.39941 52.0999 5.39941C38.6821 5.39941 27.6416 6.26573 19.9857 13.9014C12.3299 21.5371 11.5845 32.5171 11.5845 45.9551C11.5845 59.3931 12.3501 70.3933 20.0059 78.029C27.6617 85.6647 38.6418 86.4303 52.0999 86.4303C65.558 86.4303 76.5582 85.6647 84.1939 78.029C91.8296 70.3933 92.6758 59.3931 92.6758 45.9551C92.6758 32.5171 91.8296 21.4968 84.1738 13.8611ZM49.1181 60.9243C49.1181 61.0579 49.0651 61.186 48.9706 61.2804C48.8762 61.3749 48.7481 61.428 48.6145 61.428H41.7041C41.6363 61.4307 41.5686 61.4196 41.5052 61.3956C41.4417 61.3715 41.3838 61.3348 41.3348 61.2877C41.2859 61.2407 41.247 61.1843 41.2204 61.1218C41.1939 61.0593 41.1802 60.9922 41.1803 60.9243V42.7921C41.1829 42.7259 41.1985 42.6609 41.2262 42.6008C41.254 42.5407 41.2933 42.4866 41.3419 42.4417C41.3906 42.3968 41.4476 42.3619 41.5098 42.3391C41.5719 42.3162 41.6379 42.3058 41.7041 42.3085H48.6145C48.7446 42.3084 48.8698 42.3587 48.9637 42.4489C49.0576 42.539 49.1129 42.662 49.1181 42.7921V60.9243ZM62.6367 60.9243C62.6367 61.0579 62.5837 61.186 62.4892 61.2804C62.3947 61.3749 62.2666 61.428 62.133 61.428H55.545C55.4114 61.428 55.2833 61.3749 55.1889 61.2804C55.0944 61.186 55.0413 61.0579 55.0413 60.9243V45.3507C55.0413 42.6107 54.8802 39.8305 53.4699 38.4202C51.7789 37.2358 49.724 36.6864 47.6676 36.8689H35.7406C35.607 36.8689 35.4789 36.9219 35.3845 37.0164C35.29 37.1109 35.2369 37.239 35.2369 37.3725V60.9243C35.2369 61.0579 35.1839 61.186 35.0894 61.2804C34.995 61.3749 34.8668 61.428 34.7333 61.428H28.2057C28.0721 61.428 27.944 61.3749 27.8495 61.2804C27.7551 61.186 27.702 61.0579 27.702 60.9243V30.9054C27.702 30.7718 27.7551 30.6437 27.8495 30.5492C27.944 30.4548 28.0721 30.4017 28.2057 30.4017H47.184C52.1603 30.4017 57.2575 30.6233 59.8967 33.2021C62.536 35.7809 62.6972 40.9386 62.6972 45.9148L62.6367 60.9243ZM76.1956 60.9243C76.1956 61.0579 76.1425 61.186 76.0481 61.2804C75.9536 61.3749 75.8255 61.428 75.6919 61.428H69.1039C68.9703 61.428 68.8422 61.3749 68.7477 61.2804C68.6533 61.186 68.6002 61.0579 68.6002 60.9243V30.9054C68.6002 30.7718 68.6533 30.6437 68.7477 30.5492C68.8422 30.4548 68.9703 30.4017 69.1039 30.4017H75.6919C75.8255 30.4017 75.9536 30.4548 76.0481 30.5492C76.1425 30.6437 76.1956 30.7718 76.1956 30.9054V60.9243Z" fill="#DF6919"/>
<path d="M48.6144 42.3085H41.704C41.6378 42.3058 41.5718 42.3162 41.5097 42.339C41.4475 42.3619 41.3905 42.3968 41.3418 42.4417C41.2932 42.4866 41.2539 42.5407 41.2261 42.6008C41.1984 42.6609 41.1828 42.7259 41.1802 42.792V60.9243C41.1801 60.9921 41.1938 61.0593 41.2203 61.1218C41.2469 61.1842 41.2858 61.2407 41.3347 61.2877C41.3837 61.3348 41.4416 61.3714 41.5051 61.3955C41.5685 61.4196 41.6362 61.4307 41.704 61.4279H48.6144C48.748 61.4279 48.8761 61.3749 48.9705 61.2804C49.065 61.186 49.1181 61.0578 49.1181 60.9243V42.792C49.1128 42.662 49.0575 42.539 48.9636 42.4489C48.8697 42.3587 48.7445 42.3084 48.6144 42.3085Z" fill="white"/>
<path d="M69.1038 61.428H75.6918C75.8254 61.428 75.9535 61.3749 76.048 61.2805C76.1424 61.186 76.1955 61.0579 76.1955 60.9243V30.9054C76.1955 30.7718 76.1424 30.6437 76.048 30.5493C75.9535 30.4548 75.8254 30.4017 75.6918 30.4017H69.1038C68.9702 30.4017 68.8421 30.4548 68.7476 30.5493C68.6532 30.6437 68.6001 30.7718 68.6001 30.9054V60.9243C68.6001 61.0579 68.6532 61.186 68.7476 61.2805C68.8421 61.3749 68.9702 61.428 69.1038 61.428Z" fill="white"/>
<path d="M28.2058 61.428H34.7939C34.9274 61.428 35.0556 61.3749 35.15 61.2805C35.2445 61.186 35.2975 61.0579 35.2975 60.9243V37.3726C35.2975 37.239 35.3506 37.1109 35.4451 37.0164C35.5395 36.922 35.6676 36.8689 35.8012 36.8689H47.7282C49.7846 36.6864 51.8395 37.2358 53.5305 38.4202C54.9408 39.8305 55.1019 42.6108 55.1019 45.3507V60.9243C55.1019 61.0579 55.155 61.186 55.2495 61.2805C55.3439 61.3749 55.472 61.428 55.6056 61.428H62.1937C62.3272 61.428 62.4553 61.3749 62.5498 61.2805C62.6443 61.186 62.6973 61.0579 62.6973 60.9243V45.9149C62.6973 40.9386 62.4757 35.8414 59.8969 33.2022C57.3181 30.5629 52.1605 30.4017 47.1842 30.4017H28.2058C28.0722 30.4017 27.9441 30.4548 27.8497 30.5493C27.7552 30.6437 27.7021 30.7718 27.7021 30.9054V60.9243C27.7021 61.0579 27.7552 61.186 27.8497 61.2805C27.9441 61.3749 28.0722 61.428 28.2058 61.428Z" fill="white"/>
<path d="M117.577 56.4114L121.385 65.9409H120.237L119.169 63.221H115.14L114.052 65.9409H112.823L116.651 56.4114H117.577ZM118.867 62.4554L117.154 58.0634L115.402 62.4554H118.867Z" fill="black"/>
<path d="M127.127 66.0013V65.2358C126.542 65.8196 125.757 66.1582 124.931 66.1827C124.609 66.1941 124.288 66.1387 123.988 66.02C123.688 65.9012 123.416 65.7217 123.189 65.4928C122.962 65.2638 122.785 64.9903 122.668 64.6895C122.552 64.3887 122.499 64.0671 122.513 63.7449V59.0708H123.622V63.6039C123.61 63.8177 123.644 64.0315 123.719 64.2319C123.794 64.4323 123.911 64.6149 124.06 64.7682C124.21 64.9215 124.389 65.0421 124.588 65.1226C124.786 65.2031 124.999 65.2416 125.213 65.2358C125.601 65.2293 125.982 65.1375 126.331 64.9669C126.679 64.7963 126.985 64.551 127.228 64.2486V59.0708H128.336V66.0013H127.127Z" fill="black"/>
<path d="M134.4 59.0707V59.9572H132.043V63.9866C132.034 64.1476 132.059 64.3087 132.117 64.4593C132.175 64.6099 132.263 64.7467 132.377 64.8607C132.491 64.9747 132.628 65.0635 132.779 65.1211C132.929 65.1788 133.091 65.2041 133.252 65.1954C133.657 65.1661 134.051 65.0419 134.4 64.8327V65.7998C133.969 65.9972 133.503 66.1068 133.03 66.1221C132.496 66.1221 131.983 65.9099 131.605 65.532C131.227 65.1542 131.015 64.6418 131.015 64.1074V59.9572H129.686V59.0707H130.955V57.056H132.063V59.0707H134.4Z" fill="black"/>
<path d="M137.14 56.0487V59.8363C137.73 59.2633 138.514 58.9326 139.336 58.9096C139.659 58.8981 139.98 58.9535 140.279 59.0723C140.579 59.191 140.851 59.3705 141.078 59.5995C141.306 59.8284 141.483 60.1019 141.599 60.4028C141.715 60.7036 141.768 61.0252 141.754 61.3473V66.0013H140.646V61.4884C140.66 61.2755 140.629 61.0621 140.556 60.8618C140.483 60.6614 140.369 60.4786 140.221 60.3249C140.073 60.1713 139.895 60.0503 139.697 59.9696C139.5 59.8889 139.288 59.8504 139.074 59.8565C138.686 59.8601 138.304 59.9506 137.955 60.1215C137.606 60.2923 137.3 60.5391 137.06 60.8437V66.0013H135.972V56.0487H137.14Z" fill="black"/>
<path d="M146.73 58.9096C147.465 58.8486 148.202 59.0122 148.842 59.3786C149.482 59.7451 149.997 60.2972 150.317 60.962C150.637 61.6268 150.748 62.373 150.635 63.1022C150.522 63.8313 150.19 64.509 149.684 65.0458C149.178 65.5825 148.52 65.9531 147.799 66.1085C147.078 66.2639 146.326 66.1968 145.644 65.9162C144.962 65.6355 144.38 65.1545 143.977 64.5366C143.574 63.9187 143.368 63.193 143.385 62.4554C143.358 61.9996 143.424 61.5429 143.58 61.1136C143.736 60.6843 143.978 60.2914 144.291 59.9592C144.604 59.627 144.982 59.3625 145.402 59.182C145.821 59.0014 146.273 58.9087 146.73 58.9096ZM146.73 65.2558C148.019 65.2558 148.926 64.1276 148.926 62.536C148.926 60.9444 148.019 59.8363 146.73 59.8363C145.44 59.8363 144.514 60.9444 144.514 62.536C144.514 64.1276 145.42 65.2558 146.73 65.2558Z" fill="black"/>
<path d="M152.855 59.0707V59.9169C153.081 59.6194 153.369 59.3751 153.7 59.201C154.031 59.027 154.395 58.9275 154.768 58.9095C155 58.9149 155.23 58.9487 155.453 59.0103V59.9975C155.21 59.933 154.96 59.8991 154.708 59.8967C154.336 59.9229 153.975 60.0347 153.654 60.2234C153.332 60.4122 153.059 60.6727 152.855 60.9847V66.0013H151.767V59.0707H152.855Z" fill="black"/>
<path d="M157.509 56.4114C157.601 56.4057 157.693 56.4194 157.78 56.4516C157.867 56.4837 157.946 56.5336 158.012 56.5981C158.079 56.6626 158.131 56.7402 158.166 56.826C158.2 56.9118 158.217 57.0039 158.214 57.0964C158.214 57.1872 158.195 57.2771 158.16 57.3605C158.124 57.4439 158.071 57.5191 158.005 57.5814C157.939 57.6436 157.861 57.6917 157.775 57.7227C157.69 57.7536 157.599 57.7667 157.509 57.7612C157.42 57.7672 157.331 57.7541 157.247 57.7228C157.164 57.6914 157.088 57.6427 157.025 57.5797C156.962 57.5167 156.913 57.441 156.882 57.3577C156.851 57.2743 156.838 57.1852 156.844 57.0964C156.838 57.0067 156.851 56.9168 156.882 56.8324C156.913 56.7481 156.962 56.6712 157.024 56.6067C157.087 56.5422 157.162 56.4915 157.246 56.4579C157.329 56.4242 157.419 56.4084 157.509 56.4114ZM158.073 59.0909V66.0215H156.965V59.0708L158.073 59.0909Z" fill="black"/>
<path d="M163.673 59.9573H159.946V59.0708H165.043V59.7356L161.175 65.1149H165.204V66.0013H159.745V65.3365L163.673 59.9573Z" fill="black"/>
<path d="M169.234 58.9095C170.946 58.9095 172.075 60.3198 172.075 62.3144C172.084 62.4754 172.084 62.6369 172.075 62.7979H167.219C167.208 63.1221 167.263 63.4452 167.379 63.7479C167.496 64.0505 167.672 64.3267 167.898 64.5598C168.124 64.7929 168.394 64.9782 168.693 65.1047C168.991 65.2312 169.312 65.2963 169.637 65.2961C170.358 65.2732 171.058 65.0423 171.651 64.6313V65.6386C170.979 65.988 170.233 66.1743 169.476 66.1826C169.003 66.1791 168.537 66.0775 168.106 65.8841C167.675 65.6907 167.29 65.4098 166.973 65.0593C166.657 64.7088 166.417 64.2963 166.268 63.848C166.12 63.3997 166.066 62.9255 166.111 62.4554C166.075 62.0159 166.129 61.5737 166.268 61.1552C166.407 60.7368 166.628 60.3505 166.92 60.0196C167.211 59.6887 167.566 59.4199 167.964 59.2292C168.361 59.0384 168.793 58.9297 169.234 58.9095ZM169.234 59.7759C168.671 59.8071 168.143 60.0598 167.765 60.4787C167.388 60.8977 167.192 61.4489 167.219 62.0122H171.067C171.047 60.7026 170.322 59.7759 169.234 59.7759Z" fill="black"/>
<path d="M178.341 66.0013V65.3767C177.801 65.8995 177.077 66.189 176.326 66.1826C175.873 66.1593 175.429 66.0416 175.024 65.8371C174.618 65.6326 174.26 65.3458 173.972 64.9951C173.684 64.6443 173.472 64.2373 173.35 63.8C173.228 63.3627 173.199 62.9047 173.264 62.4554C173.21 62.0101 173.25 61.5586 173.38 61.1294C173.51 60.7001 173.728 60.3026 174.02 59.9618C174.311 59.621 174.67 59.3444 175.074 59.1494C175.478 58.9544 175.918 58.8453 176.366 58.829C177.113 58.8256 177.834 59.1065 178.381 59.6147V56.0487H179.489V66.0013H178.341ZM176.568 65.2357C176.904 65.2255 177.234 65.147 177.539 65.005C177.844 64.863 178.117 64.6604 178.341 64.4097V60.6825C178.118 60.429 177.846 60.2233 177.541 60.0778C177.236 59.9324 176.905 59.8502 176.568 59.8363C175.298 59.8363 174.412 60.9444 174.412 62.536C174.412 64.1276 175.278 65.2357 176.568 65.2357Z" fill="black"/>
<path d="M188.293 56.4114C188.693 56.3865 189.094 56.4443 189.471 56.5812C189.848 56.7181 190.193 56.9311 190.484 57.2071C190.775 57.483 191.007 57.8159 191.163 58.1851C191.32 58.5543 191.399 58.9518 191.396 59.3528C191.415 59.9715 191.227 60.579 190.862 61.079C190.497 61.5789 189.976 61.9428 189.381 62.113L191.799 66.0013H190.549L188.233 62.2339H186.581V66.0013H185.352V56.4114H188.293ZM188.132 61.287C188.666 61.287 189.179 61.0747 189.556 60.6969C189.934 60.319 190.147 59.8066 190.147 59.2723C190.147 58.7379 189.934 58.2255 189.556 57.8477C189.179 57.4698 188.666 57.2576 188.132 57.2576H186.5V61.287H188.132Z" fill="black"/>
<path d="M196.009 58.9095C197.702 58.9095 198.83 60.3198 198.83 62.3144C198.84 62.4754 198.84 62.6369 198.83 62.7979H193.894C193.883 63.1221 193.938 63.4452 194.054 63.7479C194.171 64.0505 194.347 64.3267 194.573 64.5598C194.798 64.7929 195.069 64.9782 195.367 65.1047C195.666 65.2312 195.987 65.2963 196.312 65.2961C197.033 65.2698 197.731 65.0393 198.326 64.6313V65.6386C197.653 65.9859 196.908 66.1721 196.15 66.1826C195.678 66.1791 195.212 66.0775 194.781 65.8841C194.35 65.6907 193.964 65.4098 193.648 65.0593C193.332 64.7088 193.091 64.2963 192.943 63.848C192.795 63.3997 192.741 62.9255 192.786 62.4554C192.75 62.0077 192.806 61.5574 192.951 61.1323C193.096 60.7072 193.327 60.3164 193.629 59.9841C193.931 59.6517 194.299 59.3849 194.708 59.2001C195.117 59.0153 195.56 58.9164 196.009 58.9095ZM196.009 59.7759C195.446 59.8071 194.918 60.0598 194.541 60.4787C194.164 60.8977 193.967 61.4489 193.995 62.0122H197.843C197.742 60.7026 196.997 59.7759 195.969 59.7759H196.009Z" fill="black"/>
<path d="M202.194 65.2962C203.02 65.2962 203.645 64.8328 203.645 64.1478C203.645 62.5361 200.139 63.3017 200.139 60.9042C200.154 60.6106 200.228 60.3231 200.359 60.0597C200.49 59.7964 200.673 59.5628 200.898 59.3737C201.123 59.1845 201.385 59.0439 201.667 58.9606C201.949 58.8773 202.245 58.8531 202.537 58.8895C203.176 58.8951 203.807 59.0323 204.39 59.2924V60.4408C203.863 60.0939 203.248 59.9052 202.617 59.8968C201.811 59.8968 201.227 60.3401 201.227 60.9848C201.227 62.5361 204.753 61.7705 204.753 64.2284C204.731 64.5266 204.648 64.8172 204.51 65.0823C204.371 65.3473 204.18 65.5814 203.948 65.77C203.716 65.9586 203.448 66.0979 203.16 66.1793C202.873 66.2606 202.571 66.2823 202.275 66.2431C201.574 66.2291 200.885 66.0569 200.26 65.7394V64.6918C200.827 65.0884 201.502 65.2996 202.194 65.2962Z" fill="black"/>
<path d="M209.145 58.9095C210.837 58.9095 211.966 60.3198 211.966 62.3144C211.975 62.4754 211.975 62.6369 211.966 62.7979H207.05C207.039 63.1273 207.095 63.4554 207.215 63.7622C207.336 64.069 207.518 64.3479 207.75 64.5819C207.982 64.8158 208.259 64.9999 208.565 65.1227C208.871 65.2455 209.198 65.3045 209.528 65.2961C210.249 65.2698 210.948 65.0393 211.543 64.6313V65.6386C210.869 65.9859 210.124 66.1721 209.367 66.1826C208.888 66.1904 208.413 66.0971 207.972 65.9087C207.532 65.7203 207.136 65.4411 206.811 65.0893C206.486 64.7375 206.238 64.3211 206.085 63.8672C205.932 63.4134 205.876 62.9323 205.922 62.4554C205.886 62.0077 205.942 61.5574 206.087 61.1323C206.232 60.7072 206.463 60.3164 206.765 59.9841C207.067 59.6517 207.434 59.3849 207.844 59.2001C208.253 59.0153 208.696 58.9164 209.145 58.9095ZM209.145 59.7759C208.584 59.8122 208.059 60.0664 207.683 60.4842C207.306 60.902 207.108 61.4503 207.13 62.0122H210.978C210.878 60.7026 210.132 59.7759 209.105 59.7759H209.145Z" fill="black"/>
<path d="M214.706 56.0487V66.0013H213.557V56.0487H214.706Z" fill="black"/>
<path d="M218.03 56.0487V66.0013H216.922V56.0487H218.03Z" fill="black"/>
<path d="M222.946 58.9095C224.658 58.9095 225.766 60.3198 225.766 62.3144V62.7979H220.83C220.822 63.1231 220.879 63.4466 220.998 63.7494C221.117 64.0521 221.296 64.3281 221.523 64.5609C221.75 64.7937 222.021 64.9787 222.321 65.1049C222.621 65.2312 222.943 65.2962 223.268 65.2961C223.989 65.2698 224.688 65.0393 225.283 64.6313V65.6386C224.61 65.988 223.865 66.1743 223.107 66.1826C222.633 66.1819 222.165 66.0823 221.731 65.8902C221.298 65.698 220.91 65.4176 220.591 65.0667C220.273 64.7159 220.031 64.3024 219.881 63.8528C219.732 63.4031 219.677 62.9272 219.722 62.4554C219.686 62.0077 219.743 61.5574 219.888 61.1323C220.033 60.7072 220.264 60.3164 220.566 59.9841C220.868 59.6517 221.235 59.3849 221.644 59.2001C222.054 59.0153 222.497 58.9164 222.946 58.9095ZM222.946 59.7759C222.385 59.8122 221.86 60.0664 221.484 60.4842C221.107 60.902 220.909 61.4503 220.931 62.0122H224.799C224.678 60.7026 223.933 59.7759 222.906 59.7759H222.946Z" fill="black"/>
<path d="M228.527 59.0707V59.9169C228.749 59.6199 229.033 59.3756 229.361 59.2015C229.688 59.0274 230.05 58.9277 230.42 58.9095C230.652 58.9149 230.882 58.9487 231.105 59.0103V59.9975C230.869 59.9344 230.625 59.9006 230.38 59.8967C230.007 59.9198 229.645 60.0303 229.323 60.2193C229.001 60.4083 228.728 60.6705 228.527 60.9847V66.0013H227.418V59.0707H228.527Z" fill="black"/>
<path d="M113.145 26.3119H117.356L121.889 33.1618L126.462 26.3119H130.653L124.105 35.7809L130.955 45.5723H126.623L121.889 38.3799L117.174 45.5723H112.823L119.673 35.7809L113.145 26.3119Z" fill="black"/>
<path d="M134.984 25.6672C135.519 25.6672 136.031 25.8795 136.409 26.2573C136.787 26.6352 136.999 27.1476 136.999 27.6819C136.999 28.2163 136.787 28.7287 136.409 29.1065C136.031 29.4844 135.519 29.6966 134.984 29.6966C134.45 29.6966 133.938 29.4844 133.56 29.1065C133.182 28.7287 132.97 28.2163 132.97 27.6819C132.97 27.1476 133.182 26.6352 133.56 26.2573C133.938 25.8795 134.45 25.6672 134.984 25.6672ZM136.777 31.5703V45.6731H133.232V31.5703H136.777Z" fill="black"/>
<path d="M144.252 45.9149C143.679 45.9597 143.104 45.8848 142.562 45.6948C142.021 45.5049 141.525 45.2041 141.106 44.8117C140.687 44.4193 140.354 43.9439 140.129 43.4158C139.904 42.8876 139.792 42.3184 139.799 41.7445C139.799 38.8232 142.539 36.8085 146.548 36.8085H148.281V36.2645C148.267 35.9407 148.186 35.6234 148.043 35.3326C147.899 35.0419 147.697 34.7841 147.449 34.5757C147.201 34.3673 146.912 34.2128 146.601 34.122C146.29 34.0312 145.963 34.0061 145.642 34.0483C144 34.0925 142.398 34.5573 140.988 35.3982V32.3761C142.577 31.6292 144.309 31.2373 146.065 31.2278C146.782 31.1571 147.507 31.2382 148.191 31.4658C148.875 31.6934 149.503 32.0624 150.035 32.5489C150.567 33.0353 150.991 33.6283 151.279 34.2893C151.567 34.9503 151.712 35.6645 151.706 36.3854V45.5724H148.281V44.4643C147.138 45.3858 145.719 45.8967 144.252 45.9149ZM145.42 43.1346C146.517 43.0726 147.545 42.5803 148.281 41.7646V39.0246C147.758 38.993 147.233 38.993 146.71 39.0246C144.695 39.0246 143.325 39.9715 143.325 41.3214C143.376 41.8343 143.622 42.3081 144.011 42.6454C144.401 42.9827 144.905 43.1577 145.42 43.1346Z" fill="black"/>
<path d="M161.78 31.2277C162.748 31.1957 163.712 31.3651 164.611 31.7252C165.51 32.0853 166.324 32.6282 167.002 33.3196C167.68 34.0109 168.207 34.8356 168.55 35.7414C168.892 36.6472 169.043 37.6143 168.992 38.5813C168.992 40.4942 168.233 42.3288 166.88 43.6814C165.527 45.034 163.693 45.7939 161.78 45.7939C159.867 45.7939 158.032 45.034 156.68 43.6814C155.327 42.3288 154.567 40.4942 154.567 38.5813C154.516 37.6143 154.667 36.6472 155.01 35.7414C155.352 34.8356 155.879 34.0109 156.558 33.3196C157.236 32.6282 158.05 32.0853 158.949 31.7252C159.848 31.3651 160.812 31.1957 161.78 31.2277ZM161.78 42.9129C163.795 42.9129 165.306 41.1601 165.306 38.5813C165.306 36.0025 163.855 34.2497 161.78 34.2497C159.705 34.2497 158.234 36.0227 158.234 38.6015C158.234 41.1803 159.685 42.9129 161.78 42.9129Z" fill="black"/>
<path d="M175.54 31.5702V32.6984C176.663 31.7401 178.093 31.218 179.569 31.2277C180.368 31.1938 181.161 31.3716 181.869 31.7431C182.576 32.1146 183.173 32.6666 183.599 33.3431C184.187 32.6952 184.902 32.1736 185.698 31.81C186.495 31.4464 187.357 31.2483 188.232 31.2277C188.87 31.2115 189.505 31.3297 190.094 31.5746C190.684 31.8195 191.215 32.1856 191.654 32.6491C192.093 33.1127 192.429 33.6633 192.642 34.2653C192.854 34.8674 192.937 35.5073 192.886 36.1436V45.5723H189.179V36.7077C189.201 36.4087 189.162 36.1083 189.062 35.8254C188.963 35.5425 188.806 35.2833 188.602 35.0638C188.398 34.8444 188.15 34.6695 187.875 34.5502C187.6 34.431 187.303 34.3698 187.003 34.3706C186.458 34.4038 185.924 34.5478 185.436 34.7937C184.948 35.0396 184.514 35.3824 184.163 35.8011V45.5723H180.576V36.7077C180.596 36.4059 180.553 36.1034 180.45 35.8191C180.347 35.5348 180.187 35.2748 179.978 35.0554C179.77 34.8361 179.519 34.662 179.241 34.5441C178.962 34.4263 178.663 34.3672 178.36 34.3706C177.818 34.4065 177.289 34.5517 176.804 34.7976C176.319 35.0434 175.889 35.3847 175.54 35.8011V45.5723H171.954V31.4695L175.54 31.5702Z" fill="black"/>
<path d="M198.366 25.6672C198.901 25.6672 199.413 25.8795 199.791 26.2573C200.169 26.6352 200.381 27.1476 200.381 27.6819C200.381 28.2163 200.169 28.7287 199.791 29.1065C199.413 29.4844 198.901 29.6966 198.366 29.6966C197.832 29.6966 197.319 29.4844 196.942 29.1065C196.564 28.7287 196.352 28.2163 196.352 27.6819C196.352 27.1476 196.564 26.6352 196.942 26.2573C197.319 25.8795 197.832 25.6672 198.366 25.6672ZM200.159 31.5703V45.6731H196.573V31.5703H200.159Z" fill="black"/>
<path d="M216.257 42.9734C218.271 42.9734 219.843 41.8451 219.843 40.2334C219.843 36.204 210.475 38.2187 210.475 31.5501C210.475 28.246 213.315 25.9694 217.365 25.9694C219.144 25.9816 220.904 26.3444 222.543 27.0371V30.3614C221.065 29.4436 219.366 28.9424 217.627 28.9108C215.612 28.9108 214.141 29.9383 214.141 31.4896C214.141 35.3175 223.51 33.3834 223.51 40.1729C223.51 43.5576 220.588 45.9148 216.499 45.9148C214.553 45.904 212.633 45.4637 210.878 44.6254V41.2407C212.469 42.3197 214.335 42.9209 216.257 42.9734Z" fill="black"/>
<path d="M234.832 31.5703V34.4513H230.803V40.9386C230.803 41.4729 231.015 41.9854 231.393 42.3632C231.771 42.741 232.283 42.9533 232.818 42.9533C233.525 42.9287 234.216 42.7353 234.832 42.3892V45.3306C233.895 45.7006 232.899 45.8985 231.891 45.9149C231.28 45.9542 230.667 45.8659 230.092 45.6554C229.516 45.445 228.991 45.117 228.55 44.6925C228.108 44.268 227.76 43.7562 227.527 43.1897C227.294 42.6231 227.182 42.0143 227.197 41.402V34.4513H224.799V31.5703H227.197V27.5409H230.783V31.5703H234.832Z" fill="black"/>
<path d="M243.918 31.2277C244.886 31.1957 245.85 31.3651 246.749 31.7252C247.648 32.0853 248.463 32.6282 249.141 33.3196C249.819 34.0109 250.346 34.8356 250.689 35.7414C251.031 36.6472 251.182 37.6143 251.131 38.5813C251.131 40.4942 250.371 42.3288 249.019 43.6814C247.666 45.034 245.831 45.7939 243.918 45.7939C242.006 45.7939 240.171 45.034 238.818 43.6814C237.466 42.3288 236.706 40.4942 236.706 38.5813C236.655 37.6143 236.806 36.6472 237.148 35.7414C237.491 34.8356 238.018 34.0109 238.696 33.3196C239.374 32.6282 240.189 32.0853 241.088 31.7252C241.987 31.3651 242.951 31.1957 243.918 31.2277ZM243.918 42.9129C245.933 42.9129 247.464 41.1601 247.464 38.5813C247.464 36.0025 245.994 34.2497 243.918 34.2497C241.843 34.2497 240.373 36.0227 240.373 38.6015C240.373 41.1803 241.763 42.9129 243.918 42.9129Z" fill="black"/>
<path d="M257.679 31.5703V32.9806C258.098 32.4625 258.621 32.0386 259.214 31.7366C259.808 31.4345 260.459 31.2612 261.124 31.2278C261.525 31.225 261.924 31.2723 262.313 31.3688V34.5722C261.9 34.4579 261.472 34.4036 261.043 34.411C260.382 34.4402 259.736 34.6185 259.154 34.9324C258.571 35.2464 258.067 35.688 257.679 36.2242V45.5724H254.093V31.4695L257.679 31.5703Z" fill="black"/>
<path d="M270.513 31.2277C274.179 31.2277 276.677 34.1289 276.677 38.2389C276.706 38.6749 276.706 39.1124 276.677 39.5484H267.188C267.3 40.5779 267.804 41.5248 268.596 42.1925C269.387 42.8602 270.406 43.1976 271.439 43.1346C272.92 43.069 274.357 42.6175 275.61 41.825V44.8269C274.122 45.5282 272.5 45.8994 270.855 45.9148C269.882 45.9389 268.914 45.7606 268.013 45.391C267.112 45.0214 266.297 44.4687 265.621 43.7679C264.945 43.0671 264.422 42.2335 264.084 41.3198C263.747 40.4062 263.604 39.4325 263.663 38.4605C263.604 37.5279 263.739 36.5933 264.058 35.7149C264.376 34.8365 264.872 34.0331 265.515 33.3547C266.157 32.6762 266.933 32.1373 267.792 31.7714C268.652 31.4055 269.578 31.2204 270.513 31.2277ZM270.372 34.008C269.516 34.0132 268.697 34.3539 268.091 34.9567C267.484 35.5596 267.138 36.3764 267.128 37.2315H273.172C273.222 36.4341 272.956 35.6491 272.432 35.0459C271.908 34.4428 271.168 34.0699 270.372 34.008Z" fill="black"/>
</svg>
