<svg xmlns="http://www.w3.org/2000/svg" viewBox="0 0 1145 1100"><defs><style>.cls-1{fill:#00dd24;}</style></defs><g id="Objects"><path class="cls-1" d="M251.25,871.25a454.46,454.46,0,0,0,752.49-464.58,28.36,28.36,0,0,0-53.83,17.88A397.52,397.52,0,1,1,770.24,205a28.36,28.36,0,0,0,28.25-49.18A454.32,454.32,0,0,0,251.25,871.25Z"/><path class="cls-1" d="M498.44,612.5s-53.95-34.27-119.11-86.88A31.75,31.75,0,0,0,334,531.24h0A31.76,31.76,0,0,0,332.36,567c33,53.58,89.93,138.08,134,193.59,20.79,26.19,57.69,28.62,81.94,5.6,139.5-132.4,269-299.44,424-530.72a27.31,27.31,0,0,0-42.52-34C757.78,383.57,669.57,470.12,498.44,612.5Z"/></g></svg>